<?xml version="1.0" standalone="no"?>
<!DOCTYPE svg PUBLIC "-//W3C//DTD SVG 20010904//EN"
 "http://www.w3.org/TR/2001/REC-SVG-20010904/DTD/svg10.dtd">
<svg version="1.0" xmlns="http://www.w3.org/2000/svg"
 width="225.000000pt" height="225.000000pt" viewBox="0 0 225.000000 225.000000"
 preserveAspectRatio="xMidYMid meet">

<g transform="translate(0.000000,225.000000) scale(0.100000,-0.100000)"
fill="#000000" stroke="none">
<path d="M1320 1728 c19 -5 38 -13 42 -17 8 -7 -23 -135 -77 -311 -77 -252
-135 -452 -135 -466 0 -9 -5 -12 -12 -8 -7 4 -8 3 -4 -5 4 -6 -2 -42 -15 -79
-12 -37 -27 -92 -34 -122 -25 -111 -103 -363 -115 -370 -14 -8 -58 -1 -66 11
-3 5 -9 9 -15 9 -18 0 -9 -16 20 -33 38 -22 88 -22 100 1 5 9 60 193 121 407
142 490 133 461 170 585 89 298 100 340 88 365 -10 23 -55 46 -87 44 -9 0 0
-5 19 -11z"/>
<path d="M670 1535 c-9 -10 -9 -15 -1 -15 6 0 11 4 11 9 0 5 8 12 18 14 14 4
14 5 1 6 -9 0 -22 -6 -29 -14z"/>
<path d="M1544 1538 c-5 -7 -3 -8 6 -3 15 9 500 -471 500 -495 0 -11 -343
-363 -474 -486 -19 -18 -44 -7 -75 32 -12 15 -21 21 -21 14 0 -6 15 -27 34
-46 63 -63 62 -63 333 209 194 195 241 248 237 264 -6 23 -505 523 -522 523
-6 0 -14 -5 -18 -12z"/>
<path d="M739 1504 c12 -15 21 -32 21 -38 0 -16 -215 -228 -223 -219 -4 3 -7
0 -7 -7 0 -7 -36 -48 -79 -90 -44 -42 -83 -88 -86 -102 -6 -23 13 -46 182
-216 199 -202 213 -216 213 -230 0 -11 -53 -62 -64 -62 -9 0 -151 136 -225
213 -137 145 -273 278 -278 273 -10 -10 500 -516 520 -516 26 0 77 54 77 81 0
16 -57 80 -197 221 -109 109 -200 203 -202 210 -2 6 87 99 198 207 140 137
201 203 201 218 0 23 -45 83 -62 83 -5 0 0 -12 11 -26z"/>
<path d="M605 1470 c-21 -22 -35 -40 -30 -39 10 1 82 79 73 79 -2 0 -22 -18
-43 -40z"/>
<path d="M1485 1490 c-3 -5 -1 -10 4 -10 6 0 11 5 11 10 0 6 -2 10 -4 10 -3 0
-8 -4 -11 -10z"/>
<path d="M1503 1429 c49 -62 387 -393 387 -378 0 8 -87 100 -192 205 -196 193
-243 235 -195 173z"/>
<path d="M534 1398 l-19 -23 23 19 c21 18 27 26 19 26 -2 0 -12 -10 -23 -22z"/>
<path d="M444 1308 l-29 -33 33 29 c30 28 37 36 29 36 -2 0 -16 -15 -33 -32z"/>
<path d="M389 1253 c-13 -16 -12 -17 4 -4 9 7 17 15 17 17 0 8 -8 3 -21 -13z"/>
<path d="M1101 1173 c-1 -6 -4 -20 -7 -30 -5 -17 -5 -17 6 0 6 10 9 23 6 30
-3 9 -5 9 -5 0z"/>
<path d="M1875 1020 c-3 -5 -1 -10 4 -10 6 0 11 5 11 10 0 6 -2 10 -4 10 -3 0
-8 -4 -11 -10z"/>
<path d="M1839 979 l-24 -20 28 17 c15 9 27 18 27 20 0 8 -8 4 -31 -17z"/>
<path d="M1775 914 c-18 -16 -22 -22 -9 -15 18 9 53 42 43 41 -2 -1 -17 -12
-34 -26z"/>
<path d="M1011 854 c0 -11 3 -14 6 -6 3 7 2 16 -1 19 -3 4 -6 -2 -5 -13z"/>
<path d="M1640 785 c-11 -13 -10 -14 4 -9 9 3 16 10 16 15 0 13 -6 11 -20 -6z"/>
<path d="M1539 683 l-24 -28 30 25 c17 14 32 26 34 28 2 1 0 2 -6 2 -5 0 -20
-12 -34 -27z"/>
<path d="M901 483 c-1 -6 -4 -20 -7 -30 -5 -17 -5 -17 6 0 6 10 9 23 6 30 -3
9 -5 9 -5 0z"/>
</g>
</svg>
